<?xml version="1.0" encoding="UTF-8" standalone="no"?><svg xmlns="http://www.w3.org/2000/svg" xmlns:xlink="http://www.w3.org/1999/xlink" contentStyleType="text/css" height="187px" preserveAspectRatio="none" style="width:321px;height:187px;background:#FFFFFF;" version="1.1" viewBox="0 0 321 187" width="321px" zoomAndPan="magnify"><defs/><g><text fill="#000000" font-family="sans-serif" font-size="14" font-weight="bold" lengthAdjust="spacing" textLength="72" x="123.5" y="27.9951">End Visit</text><line style="stroke:#181818;stroke-width:0.5;stroke-dasharray:5.0,5.0;" x1="27" x2="27" y1="73.5938" y2="180.9922"/><line style="stroke:#181818;stroke-width:0.5;stroke-dasharray:5.0,5.0;" x1="293" x2="293" y1="73.5938" y2="180.9922"/><rect fill="#E2E2F0" height="30.2969" rx="2.5" ry="2.5" style="stroke:#181818;stroke-width:0.5;" width="44" x="5" y="42.2969"/><text fill="#000000" font-family="sans-serif" font-size="14" lengthAdjust="spacing" textLength="30" x="12" y="62.292">App</text><rect fill="#E2E2F0" height="30.2969" rx="2.5" ry="2.5" style="stroke:#181818;stroke-width:0.5;" width="44" x="271" y="42.2969"/><text fill="#000000" font-family="sans-serif" font-size="14" lengthAdjust="spacing" textLength="30" x="278" y="62.292">SDK</text><polygon fill="#181818" points="281,100.7266,291,104.7266,281,108.7266,285,104.7266" style="stroke:#181818;stroke-width:1.0;"/><line style="stroke:#181818;stroke-width:1.0;" x1="27" x2="287" y1="104.7266" y2="104.7266"/><text fill="#000000" font-family="sans-serif" font-size="13" lengthAdjust="spacing" textLength="242" x="34" y="99.6606">tt2.analytics.stopCollectingHeatmap()</text><polygon fill="#181818" points="281,129.8594,291,133.8594,281,137.8594,285,133.8594" style="stroke:#181818;stroke-width:1.0;"/><line style="stroke:#181818;stroke-width:1.0;" x1="27" x2="287" y1="133.8594" y2="133.8594"/><text fill="#000000" font-family="sans-serif" font-size="13" lengthAdjust="spacing" textLength="148" x="34" y="128.7935">tt2.analytics.stopVisit()</text><polygon fill="#181818" points="281,158.9922,291,162.9922,281,166.9922,285,162.9922" style="stroke:#181818;stroke-width:1.0;"/><line style="stroke:#181818;stroke-width:1.0;" x1="27" x2="287" y1="162.9922" y2="162.9922"/><text fill="#000000" font-family="sans-serif" font-size="13" lengthAdjust="spacing" textLength="131" x="34" y="157.9263">tt2.navigation.stop()</text><!--SRC=[XOwn2i9044Jx-uejay8KbXQ2g21OAkdNt1aNpzt56uB-lKawGR0Rtho1EGjoehr6QgK8marYegiPBlOApaz89yuAshWJ5sBtBtpQ7ITSuZs4iQF5Uieh0fODA-VtQ9Qcm7nhEQSEelqXCHxiLVrdCJ_wOIaFqZF4TDQg-WC0]--></g></svg>