<?xml version="1.0" encoding="UTF-8" standalone="no"?><svg xmlns="http://www.w3.org/2000/svg" xmlns:xlink="http://www.w3.org/1999/xlink" contentStyleType="text/css" height="203px" preserveAspectRatio="none" style="width:302px;height:203px;background:#FFFFFF;" version="1.1" viewBox="0 0 302 203" width="302px" zoomAndPan="magnify"><defs/><g><text fill="#000000" font-family="sans-serif" font-size="14" font-weight="bold" lengthAdjust="spacing" textLength="109" x="95.5" y="27.9951">Initiate Store</text><line style="stroke:#181818;stroke-width:0.5;stroke-dasharray:5.0,5.0;" x1="43" x2="43" y1="118.5938" y2="196.8594"/><line style="stroke:#181818;stroke-width:0.5;stroke-dasharray:5.0,5.0;" x1="175" x2="175" y1="118.5938" y2="196.8594"/><line style="stroke:#181818;stroke-width:0.5;stroke-dasharray:5.0,5.0;" x1="274" x2="274" y1="118.5938" y2="196.8594"/><text fill="#000000" font-family="sans-serif" font-size="14" lengthAdjust="spacing" textLength="70" x="5" y="115.292">Customer</text><ellipse cx="43" cy="50.7969" fill="#E2E2F0" rx="8" ry="8" style="stroke:#181818;stroke-width:0.5;"/><path d="M43,58.7969 L43,85.7969 M30,66.7969 L56,66.7969 M43,85.7969 L30,100.7969 M43,85.7969 L56,100.7969 " fill="none" style="stroke:#181818;stroke-width:0.5;"/><rect fill="#E2E2F0" height="30.2969" rx="2.5" ry="2.5" style="stroke:#181818;stroke-width:0.5;" width="44" x="153" y="87.2969"/><text fill="#000000" font-family="sans-serif" font-size="14" lengthAdjust="spacing" textLength="30" x="160" y="107.292">App</text><rect fill="#E2E2F0" height="30.2969" rx="2.5" ry="2.5" style="stroke:#181818;stroke-width:0.5;" width="44" x="252" y="87.2969"/><text fill="#000000" font-family="sans-serif" font-size="14" lengthAdjust="spacing" textLength="30" x="259" y="107.292">SDK</text><polygon fill="#181818" points="163,145.7266,173,149.7266,163,153.7266,167,149.7266" style="stroke:#181818;stroke-width:1.0;"/><line style="stroke:#181818;stroke-width:1.0;" x1="43" x2="169" y1="149.7266" y2="149.7266"/><text fill="#000000" font-family="sans-serif" font-size="13" lengthAdjust="spacing" textLength="108" x="50" y="144.6606">Check in to store</text><polygon fill="#181818" points="262,174.8594,272,178.8594,262,182.8594,266,178.8594" style="stroke:#181818;stroke-width:1.0;"/><line style="stroke:#181818;stroke-width:1.0;" x1="175" x2="268" y1="178.8594" y2="178.8594"/><text fill="#000000" font-family="sans-serif" font-size="13" lengthAdjust="spacing" textLength="75" x="182" y="173.7935">tt2.initiate()</text><!--SRC=[LSun3i8m30NGFQVu8nrWOEnG2PK5CRONCAbHhK9i9KRY-2I8XSrw_b_sBFvWN9Aua3CcrynXbOLnL_MRlWF5QXXVnVN96LGGwnoCiaiKe-GucJKdip-UpjV6PTb2Q1tiXvRfCQuSDqY2AyhtOkMshT4UxiU3_1xQTHy0]--></g></svg>