<?xml version="1.0" encoding="UTF-8" standalone="no"?><svg xmlns="http://www.w3.org/2000/svg" xmlns:xlink="http://www.w3.org/1999/xlink" contentStyleType="text/css" height="877px" preserveAspectRatio="none" style="width:852px;height:877px;background:#FFFFFF;" version="1.1" viewBox="0 0 852 877" width="852px" zoomAndPan="magnify"><defs/><g><text fill="#000000" font-family="sans-serif" font-size="14" font-weight="bold" lengthAdjust="spacing" textLength="204" x="325.5" y="27.9951">SDK Integration overview</text><rect fill="none" height="167.7969" style="stroke:#000000;stroke-width:1.5;" width="836" x="10" y="135.5938"/><rect fill="none" height="75.3984" style="stroke:#000000;stroke-width:1.5;" width="480" x="10" y="317.3906"/><rect fill="none" height="139.6641" style="stroke:#000000;stroke-width:1.5;" width="680" x="158" y="406.7891"/><rect fill="none" height="174.7969" style="stroke:#000000;stroke-width:1.5;" width="813" x="10" y="560.4531"/><rect fill="none" height="104.5313" style="stroke:#000000;stroke-width:1.5;" width="332" x="158" y="749.25"/><line style="stroke:#181818;stroke-width:0.5;stroke-dasharray:5.0,5.0;" x1="58" x2="58" y1="118.5938" y2="870.7813"/><line style="stroke:#181818;stroke-width:0.5;stroke-dasharray:5.0,5.0;" x1="190" x2="190" y1="118.5938" y2="870.7813"/><line style="stroke:#181818;stroke-width:0.5;stroke-dasharray:5.0,5.0;" x1="458" x2="458" y1="118.5938" y2="870.7813"/><line style="stroke:#181818;stroke-width:0.5;stroke-dasharray:5.0,5.0;" x1="607.5" x2="607.5" y1="118.5938" y2="870.7813"/><text fill="#000000" font-family="sans-serif" font-size="14" lengthAdjust="spacing" textLength="70" x="20" y="115.292">Customer</text><ellipse cx="58" cy="50.7969" fill="#E2E2F0" rx="8" ry="8" style="stroke:#181818;stroke-width:0.5;"/><path d="M58,58.7969 L58,85.7969 M45,66.7969 L71,66.7969 M58,85.7969 L45,100.7969 M58,85.7969 L71,100.7969 " fill="none" style="stroke:#181818;stroke-width:0.5;"/><rect fill="#E2E2F0" height="30.2969" rx="2.5" ry="2.5" style="stroke:#181818;stroke-width:0.5;" width="44" x="168" y="87.2969"/><text fill="#000000" font-family="sans-serif" font-size="14" lengthAdjust="spacing" textLength="30" x="175" y="107.292">App</text><rect fill="#E2E2F0" height="30.2969" rx="2.5" ry="2.5" style="stroke:#181818;stroke-width:0.5;" width="44" x="436" y="87.2969"/><text fill="#000000" font-family="sans-serif" font-size="14" lengthAdjust="spacing" textLength="30" x="443" y="107.292">SDK</text><rect fill="#E2E2F0" height="30.2969" rx="2.5" ry="2.5" style="stroke:#181818;stroke-width:0.5;" width="83" x="566.5" y="87.2969"/><text fill="#000000" font-family="sans-serif" font-size="14" lengthAdjust="spacing" textLength="69" x="573.5" y="107.292">tt2Server</text><path d="M10,135.5938 L155,135.5938 L155,142.7266 L145,152.7266 L10,152.7266 L10,135.5938 " fill="#EEEEEE" style="stroke:#000000;stroke-width:1.5;"/><rect fill="none" height="167.7969" style="stroke:#000000;stroke-width:1.5;" width="836" x="10" y="135.5938"/><text fill="#000000" font-family="sans-serif" font-size="13" font-weight="bold" lengthAdjust="spacing" textLength="95" x="25" y="148.6606">Initialization</text><text fill="#000000" font-family="sans-serif" font-size="11" font-weight="bold" lengthAdjust="spacing" textLength="162" x="170" y="147.8042">[On application startup]</text><polygon fill="#181818" points="178,169.8594,188,173.8594,178,177.8594,182,173.8594" style="stroke:#181818;stroke-width:1.0;"/><line style="stroke:#181818;stroke-width:1.0;" x1="58" x2="184" y1="173.8594" y2="173.8594"/><text fill="#000000" font-family="sans-serif" font-size="13" lengthAdjust="spacing" textLength="59" x="65" y="168.7935">Start app</text><line style="stroke:#181818;stroke-width:1.0;stroke-dasharray:2.0,2.0;" x1="190" x2="232" y1="202.9922" y2="202.9922"/><line style="stroke:#181818;stroke-width:1.0;stroke-dasharray:2.0,2.0;" x1="232" x2="232" y1="202.9922" y2="215.9922"/><line style="stroke:#181818;stroke-width:1.0;stroke-dasharray:2.0,2.0;" x1="191" x2="232" y1="215.9922" y2="215.9922"/><polygon fill="#181818" points="201,211.9922,191,215.9922,201,219.9922,197,215.9922" style="stroke:#181818;stroke-width:1.0;"/><text fill="#000000" font-family="sans-serif" font-size="13" lengthAdjust="spacing" textLength="34" x="197" y="197.9263">TT2()</text><polygon fill="#181818" points="446,241.125,456,245.125,446,249.125,450,245.125" style="stroke:#181818;stroke-width:1.0;"/><line style="stroke:#181818;stroke-width:1.0;" x1="190" x2="452" y1="245.125" y2="245.125"/><text fill="#000000" font-family="sans-serif" font-size="13" lengthAdjust="spacing" textLength="83" x="197" y="240.0591">tt2.initialize()</text><polygon fill="#181818" points="596,280.8242,606,284.8242,596,288.8242,600,284.8242" style="stroke:#181818;stroke-width:1.0;"/><line style="stroke:#181818;stroke-width:1.0;" x1="458" x2="602" y1="284.8242" y2="284.8242"/><text fill="#000000" font-family="sans-serif" font-size="13" lengthAdjust="spacing" textLength="72" x="465" y="279.7583">getStores()</text><path d="M613,258.125 L613,298.125 L831,298.125 L831,268.125 L821,258.125 L613,258.125 " fill="#FEFFDD" style="stroke:#181818;stroke-width:0.5;"/><path d="M821,258.125 L821,268.125 L831,268.125 L821,258.125 " fill="#FEFFDD" style="stroke:#181818;stroke-width:0.5;"/><text fill="#000000" font-family="sans-serif" font-size="13" lengthAdjust="spacing" textLength="194" x="619" y="275.1919">Retrieves the latest version of</text><text fill="#000000" font-family="sans-serif" font-size="13" lengthAdjust="spacing" textLength="193" x="623" y="290.3247">the stores regarding the client</text><path d="M10,317.3906 L164,317.3906 L164,324.5234 L154,334.5234 L10,334.5234 L10,317.3906 " fill="#EEEEEE" style="stroke:#000000;stroke-width:1.5;"/><rect fill="none" height="75.3984" style="stroke:#000000;stroke-width:1.5;" width="480" x="10" y="317.3906"/><text fill="#000000" font-family="sans-serif" font-size="13" font-weight="bold" lengthAdjust="spacing" textLength="104" x="25" y="330.4575">Initiate Store</text><text fill="#000000" font-family="sans-serif" font-size="11" font-weight="bold" lengthAdjust="spacing" textLength="239" x="179" y="329.6011">[When customer checks in to store]</text><polygon fill="#181818" points="178,351.6563,188,355.6563,178,359.6563,182,355.6563" style="stroke:#181818;stroke-width:1.0;"/><line style="stroke:#181818;stroke-width:1.0;" x1="58" x2="184" y1="355.6563" y2="355.6563"/><text fill="#000000" font-family="sans-serif" font-size="13" lengthAdjust="spacing" textLength="108" x="65" y="350.5903">Check in to store</text><polygon fill="#181818" points="446,380.7891,456,384.7891,446,388.7891,450,384.7891" style="stroke:#181818;stroke-width:1.0;"/><line style="stroke:#181818;stroke-width:1.0;" x1="190" x2="452" y1="384.7891" y2="384.7891"/><text fill="#000000" font-family="sans-serif" font-size="13" lengthAdjust="spacing" textLength="75" x="197" y="379.7231">tt2.initiate()</text><path d="M158,406.7891 L354,406.7891 L354,413.9219 L344,423.9219 L158,423.9219 L158,406.7891 " fill="#EEEEEE" style="stroke:#000000;stroke-width:1.5;"/><rect fill="none" height="139.6641" style="stroke:#000000;stroke-width:1.5;" width="680" x="158" y="406.7891"/><text fill="#000000" font-family="sans-serif" font-size="13" font-weight="bold" lengthAdjust="spacing" textLength="146" x="173" y="419.856">Start shopping trip</text><text fill="#000000" font-family="sans-serif" font-size="11" font-weight="bold" lengthAdjust="spacing" textLength="318" x="369" y="418.9995">[Can be started right after store initialization]</text><polygon fill="#181818" points="446,441.0547,456,445.0547,446,449.0547,450,445.0547" style="stroke:#181818;stroke-width:1.0;"/><line style="stroke:#181818;stroke-width:1.0;" x1="190" x2="452" y1="445.0547" y2="445.0547"/><text fill="#000000" font-family="sans-serif" font-size="13" lengthAdjust="spacing" textLength="210" x="197" y="439.9888">tt2.user.initializeUser(memberId)</text><polygon fill="#181818" points="596,473.1875,606,477.1875,596,481.1875,600,477.1875" style="stroke:#181818;stroke-width:1.0;"/><line style="stroke:#181818;stroke-width:1.0;" x1="458" x2="602" y1="477.1875" y2="477.1875"/><text fill="#000000" font-family="sans-serif" font-size="13" lengthAdjust="spacing" textLength="126" x="465" y="472.1216">getUser(memberId)</text><path d="M613,458.0547 L613,483.0547 L823,483.0547 L823,468.0547 L813,458.0547 L613,458.0547 " fill="#FEFFDD" style="stroke:#181818;stroke-width:0.5;"/><path d="M813,458.0547 L813,468.0547 L823,468.0547 L813,458.0547 " fill="#FEFFDD" style="stroke:#181818;stroke-width:0.5;"/><text fill="#000000" font-family="sans-serif" font-size="13" lengthAdjust="spacing" textLength="189" x="619" y="475.1216">Retrieves the personal profile</text><polygon fill="#181818" points="446,505.3203,456,509.3203,446,513.3203,450,509.3203" style="stroke:#181818;stroke-width:1.0;"/><line style="stroke:#181818;stroke-width:1.0;" x1="190" x2="452" y1="509.3203" y2="509.3203"/><text fill="#000000" font-family="sans-serif" font-size="13" lengthAdjust="spacing" textLength="150" x="197" y="504.2544">tt2.analytics.startVisit()</text><polygon fill="#181818" points="446,534.4531,456,538.4531,446,542.4531,450,538.4531" style="stroke:#181818;stroke-width:1.0;"/><line style="stroke:#181818;stroke-width:1.0;" x1="190" x2="452" y1="538.4531" y2="538.4531"/><text fill="#000000" font-family="sans-serif" font-size="13" lengthAdjust="spacing" textLength="244" x="197" y="533.3872">tt2.analytics.startCollectingHeatmap()</text><path d="M10,560.4531 L131,560.4531 L131,567.5859 L121,577.5859 L10,577.5859 L10,560.4531 " fill="#EEEEEE" style="stroke:#000000;stroke-width:1.5;"/><rect fill="none" height="174.7969" style="stroke:#000000;stroke-width:1.5;" width="813" x="10" y="560.4531"/><text fill="#000000" font-family="sans-serif" font-size="13" font-weight="bold" lengthAdjust="spacing" textLength="76" x="25" y="573.52">Scan Item</text><polygon fill="#181818" points="178,594.7188,188,598.7188,178,602.7188,182,598.7188" style="stroke:#181818;stroke-width:1.0;"/><line style="stroke:#181818;stroke-width:1.0;" x1="58" x2="184" y1="598.7188" y2="598.7188"/><text fill="#000000" font-family="sans-serif" font-size="13" lengthAdjust="spacing" textLength="71" x="65" y="593.6528">Scans item</text><polygon fill="#181818" points="446,623.8516,456,627.8516,446,631.8516,450,627.8516" style="stroke:#181818;stroke-width:1.0;"/><line style="stroke:#181818;stroke-width:1.0;" x1="190" x2="452" y1="627.8516" y2="627.8516"/><text fill="#000000" font-family="sans-serif" font-size="13" lengthAdjust="spacing" textLength="233" x="197" y="622.7856">TT2.position.getByBarcode(Barcode)</text><polygon fill="#181818" points="201,652.9844,191,656.9844,201,660.9844,197,656.9844" style="stroke:#181818;stroke-width:1.0;"/><line style="stroke:#181818;stroke-width:1.0;stroke-dasharray:2.0,2.0;" x1="195" x2="457" y1="656.9844" y2="656.9844"/><text fill="#000000" font-family="sans-serif" font-size="13" lengthAdjust="spacing" textLength="79" x="207" y="651.9185">itemPosition</text><polygon fill="#181818" points="446,685.1172,456,689.1172,446,693.1172,450,689.1172" style="stroke:#181818;stroke-width:1.0;"/><line style="stroke:#181818;stroke-width:1.0;" x1="190" x2="452" y1="689.1172" y2="689.1172"/><text fill="#000000" font-family="sans-serif" font-size="13" lengthAdjust="spacing" textLength="218" x="197" y="684.0513">TT2.navigation.sync(itemPosition)</text><path d="M463,669.9844 L463,694.9844 L808,694.9844 L808,679.9844 L798,669.9844 L463,669.9844 " fill="#FEFFDD" style="stroke:#181818;stroke-width:0.5;"/><path d="M798,669.9844 L798,679.9844 L808,679.9844 L798,669.9844 " fill="#FEFFDD" style="stroke:#181818;stroke-width:0.5;"/><text fill="#000000" font-family="sans-serif" font-size="13" lengthAdjust="spacing" textLength="324" x="469" y="687.0513">The first item scanned will set the starting position</text><polygon fill="#181818" points="446,720.25,456,724.25,446,728.25,450,724.25" style="stroke:#181818;stroke-width:1.0;"/><line style="stroke:#181818;stroke-width:1.0;" x1="190" x2="452" y1="724.25" y2="724.25"/><text fill="#000000" font-family="sans-serif" font-size="13" lengthAdjust="spacing" textLength="195" x="197" y="719.1841">TT2.analytics.postScanEvent()</text><path d="M463,705.1172 L463,730.1172 L785,730.1172 L785,715.1172 L775,705.1172 L463,705.1172 " fill="#FEFFDD" style="stroke:#181818;stroke-width:0.5;"/><path d="M775,705.1172 L775,715.1172 L785,715.1172 L775,705.1172 " fill="#FEFFDD" style="stroke:#181818;stroke-width:0.5;"/><text fill="#000000" font-family="sans-serif" font-size="13" lengthAdjust="spacing" textLength="301" x="469" y="722.1841">This is optional and used for statistical analysis</text><path d="M158,749.25 L274,749.25 L274,756.3828 L264,766.3828 L158,766.3828 L158,749.25 " fill="#EEEEEE" style="stroke:#000000;stroke-width:1.5;"/><rect fill="none" height="104.5313" style="stroke:#000000;stroke-width:1.5;" width="332" x="158" y="749.25"/><text fill="#000000" font-family="sans-serif" font-size="13" font-weight="bold" lengthAdjust="spacing" textLength="66" x="173" y="762.3169">End Visit</text><text fill="#000000" font-family="sans-serif" font-size="11" font-weight="bold" lengthAdjust="spacing" textLength="173" x="289" y="761.4604">[When customer has paid]</text><polygon fill="#181818" points="446,783.5156,456,787.5156,446,791.5156,450,787.5156" style="stroke:#181818;stroke-width:1.0;"/><line style="stroke:#181818;stroke-width:1.0;" x1="190" x2="452" y1="787.5156" y2="787.5156"/><text fill="#000000" font-family="sans-serif" font-size="13" lengthAdjust="spacing" textLength="244" x="197" y="782.4497">TT2analytics.stopCollectingHeatmap()</text><polygon fill="#181818" points="446,812.6484,456,816.6484,446,820.6484,450,816.6484" style="stroke:#181818;stroke-width:1.0;"/><line style="stroke:#181818;stroke-width:1.0;" x1="190" x2="452" y1="816.6484" y2="816.6484"/><text fill="#000000" font-family="sans-serif" font-size="13" lengthAdjust="spacing" textLength="154" x="197" y="811.5825">TT2.analytics.stopVisit()</text><polygon fill="#181818" points="446,841.7813,456,845.7813,446,849.7813,450,845.7813" style="stroke:#181818;stroke-width:1.0;"/><line style="stroke:#181818;stroke-width:1.0;" x1="190" x2="452" y1="845.7813" y2="845.7813"/><text fill="#000000" font-family="sans-serif" font-size="13" lengthAdjust="spacing" textLength="137" x="197" y="840.7153">TT2.navigation.stop()</text><!--SRC=[VLInZjf04Etz5LEIuYYkf3WfHquAkY9H84b1A1PxR8_ExAvs1oxaw_Ds3Jg336xidNb-C-_Ds2lHZcdvvPKMLha9HiLPSWSE1-7tefMAgNPEj-vlOKfrWURxg6x7WKoa4i-5Dq6b56-iqcVlKznuVn5E_0Z7wkqYhFguHA6U2uUYQ8BRUxGYAgQJVtqtwsysCNPIzkUeuDZxJK6uKWlqy9G0CrgcJAwUKhZJmpcrMZrEFds4dr8pirHqAkTgV08Wam38pQXXNK8rnrCkNTOfKv2crHdzO0t21qR_BLDdbD4E5CLiO_t7vdZC51IuCQ4Is-HWsGbRBTXMbxf1dalI-dVBDWlCVfSjbs-H19IkPnnnO9v0GymToPe43yhtxiNMUPzx3E9fFJUMjjnxpbKlcqojQ2ZparmCQpDQRnyv37p-YUDanxijXqKrwla8uhxp7fOxQphomTNIZSis01onVN6QvVoIA7fZAQwWSzTrN2fi-Sf6TyPVELV2fONoRcGbaSBGphbX7Qpar3lq0D-c4FryV3QXT1LFJlU1DMUwHFJzzCueeJK7QV8efl5eoydmXN4ZLx2lbe2U4vOY6hQOzBjq7KNMqmAdpnPBuU_L_Z0DC4tANmvOyScjkW9Z8ZcV234wOol2fbJuuQJbWeW8ifm0RvGujFm5u3p0wy-anR_46wasOoqEn-hys5JlwqfltLgRQ_S1xRVaFm00]--></g></svg>