<?xml version="1.0" encoding="UTF-8"?> <svg xmlns="http://www.w3.org/2000/svg" xmlns:xlink="http://www.w3.org/1999/xlink" width="226.319" height="146.198" viewBox="0 0 226.319 146.198"><defs><clipPath id="clip-path"><path id="Path_624" data-name="Path 624" d="M139.651-104.229a57.277,57.277,0,0,0-.487,7.487h0v14.135H164.8V-95.394c0-13.343,4.316-19.557,13.582-19.557h0c4.929,0,13.2,2.341,13.2,18.014h0c0,14.042-11.161,25.464-22.979,37.559h0c-14.161,14.491-30.21,30.916-30.21,55.139h0V7.425h80.178V-15.9h-51.5l.265-.867c3.153-10.327,11.949-19.4,21.262-29.011h0c13.416-13.842,28.622-29.53,28.622-51.927h0c0-24.645-15.32-40.571-39.03-40.571h0c-21.271,0-35.78,13.129-38.541,34.048" transform="translate(-138.393 138.278)" fill="none"></path></clipPath><clipPath id="clip-path-2"><path id="Path_623" data-name="Path 623" d="M0,7.752H226.319v-146.2H0Z" transform="translate(0 138.447)" fill="none"></path></clipPath><linearGradient id="linear-gradient" x1="0.043" y1="0.823" x2="1.051" y2="0.823" gradientUnits="objectBoundingBox"><stop offset="0" stop-color="#2ab672"></stop><stop offset="0.1" stop-color="#26b57f"></stop><stop offset="0.2" stop-color="#22b48b"></stop><stop offset="0.3" stop-color="#1eb398"></stop><stop offset="0.4" stop-color="#19b2a4"></stop><stop offset="0.5" stop-color="#15b1b0"></stop><stop offset="0.6" stop-color="#11b1bd"></stop><stop offset="0.7" stop-color="#0cb0c9"></stop><stop offset="0.8" stop-color="#08afd6"></stop><stop offset="0.9" stop-color="#04aee2"></stop><stop offset="1" stop-color="#00aeef"></stop></linearGradient></defs><g id="Group_1379" data-name="Group 1379" transform="translate(0 138.447)"><g id="Group_1377" data-name="Group 1377" transform="translate(146.141 -138.268)" clip-path="url(#clip-path)"><g id="Group_1376" data-name="Group 1376" transform="translate(-146.141 -0.179)" clip-path="url(#clip-path-2)"><g id="Group_1375" data-name="Group 1375" transform="translate(0 146.198) rotate(-90)"><path id="Path_622" data-name="Path 622" d="M146.2,0V226.319H0V0Z" transform="translate(0)" fill="url(#linear-gradient)"></path></g></g></g><g id="Group_1378" data-name="Group 1378" transform="translate(0 -138.447)" clip-path="url(#clip-path-2)"><path id="Path_625" data-name="Path 625" d="M146.912-96.734a57.262,57.262,0,0,1,.487-7.485H109.264v-34.227h-21.9v18.83c0,5.749-2,15.4-15.4,15.4H44.416v-34.227h-21.9v18.83c0,5.749-2,15.4-15.394,15.4H0v21.671H20.714v58.181c0,19.812,12.048,32.117,31.441,32.117A47.807,47.807,0,0,0,67.012,5.645l.819-.311v-20.51l-1.573.395a41.693,41.693,0,0,1-8.022.858c-9.817,0-13.821-3.937-13.821-13.6V-82.548H85.565v58.181C85.565-4.555,97.615,7.751,117,7.751a47.809,47.809,0,0,0,14.861-2.106l.821-.31V-15.176l-1.571.395a41.808,41.808,0,0,1-8.025.858c-9.824,0-13.823-3.937-13.823-13.6V-82.548l37.649-.05Z" transform="translate(0 138.447)" fill="#fff"></path></g></g></svg> 