<?xml version="1.0" encoding="utf-8"?>
<!-- Generator: Adobe Illustrator 26.3.1, SVG Export Plug-In . SVG Version: 6.00 Build 0)  -->
<svg version="1.1" id="Layer_1" xmlns="http://www.w3.org/2000/svg" xmlns:xlink="http://www.w3.org/1999/xlink" x="0px" y="0px"
	 viewBox="0 0 226.3 146.2" style="enable-background:new 0 0 226.3 146.2;" xml:space="preserve">
<style type="text/css">
	.st0{clip-path:url(#SVGID_00000109022049505222893360000016993113876457845674_);}
	.st1{clip-path:url(#SVGID_00000091731600318486052990000001239412550173787569_);}
	.st2{fill:url(#Path_622_00000121968630299499345370000003449109839351494045_);}
	.st3{clip-path:url(#SVGID_00000144329224964910203650000015849554208000590228_);}
</style>
<g id="Group_1379" transform="translate(0 138.447)">
	<g>
		<defs>
			<path id="SVGID_1_" d="M147.4-104.2c-0.3,2.5-0.5,5-0.5,7.5l0,0v14.1h25.6v-12.8c0-13.3,4.3-19.6,13.6-19.6l0,0
				c4.9,0,13.2,2.3,13.2,18l0,0c0,14-11.2,25.5-23,37.6l0,0c-14.2,14.5-30.2,30.9-30.2,55.1l0,0V7.4h80.2v-23.3h-51.5l0.3-0.9
				c3.2-10.3,11.9-19.4,21.3-29l0,0C209.8-59.6,225-75.3,225-97.7l0,0c0-24.6-15.3-40.6-39-40.6l0,0
				C164.7-138.3,150.2-125.1,147.4-104.2"/>
		</defs>
		<clipPath id="SVGID_00000134240748710895029970000017737314168215101102_">
			<use xlink:href="#SVGID_1_"  style="overflow:visible;"/>
		</clipPath>
		
			<g id="Group_1377" transform="translate(146.141 -138.268)" style="clip-path:url(#SVGID_00000134240748710895029970000017737314168215101102_);">
			<g>
				<defs>
					<rect id="SVGID_00000068639861384740299740000005588489412018243727_" x="-146.1" y="-0.2" width="226.3" height="146.2"/>
				</defs>
				<clipPath id="SVGID_00000027587804024342689960000006795785774009032338_">
					<use xlink:href="#SVGID_00000068639861384740299740000005588489412018243727_"  style="overflow:visible;"/>
				</clipPath>
				
					<g id="Group_1376" transform="translate(-146.141 -0.179)" style="clip-path:url(#SVGID_00000027587804024342689960000006795785774009032338_);">
					<g id="Group_1375" transform="translate(0 146.198) rotate(-90)">
						
							<linearGradient id="Path_622_00000024685029640804843460000000824786929284862615_" gradientUnits="userSpaceOnUse" x1="-463.5639" y1="-849.1444" x2="-462.5559" y2="-849.1444" gradientTransform="matrix(0 226.319 146.2 0 124151.1953 105026.4844)">
							<stop  offset="0" style="stop-color:#2AB672"/>
							<stop  offset="0.1" style="stop-color:#26B57F"/>
							<stop  offset="0.2" style="stop-color:#22B48B"/>
							<stop  offset="0.3" style="stop-color:#1EB398"/>
							<stop  offset="0.4" style="stop-color:#19B2A4"/>
							<stop  offset="0.5" style="stop-color:#15B1B0"/>
							<stop  offset="0.6" style="stop-color:#11B1BD"/>
							<stop  offset="0.7" style="stop-color:#0CB0C9"/>
							<stop  offset="0.8" style="stop-color:#08AFD6"/>
							<stop  offset="0.9" style="stop-color:#04AEE2"/>
							<stop  offset="1" style="stop-color:#00AEEF"/>
						</linearGradient>
						<path id="Path_622" style="fill:url(#Path_622_00000024685029640804843460000000824786929284862615_);" d="M146.2,0v226.3H0V0
							H146.2z"/>
					</g>
				</g>
			</g>
		</g>
	</g>
	<g>
		<defs>
			<rect id="SVGID_00000061457657434881473600000010846195755951927451_" y="-138.4" width="226.3" height="146.2"/>
		</defs>
		<clipPath id="SVGID_00000173128339347497373470000017383249311184177281_">
			<use xlink:href="#SVGID_00000061457657434881473600000010846195755951927451_"  style="overflow:visible;"/>
		</clipPath>
		
			<g id="Group_1378" transform="translate(0 -138.447)" style="clip-path:url(#SVGID_00000173128339347497373470000017383249311184177281_);">
			<path id="Path_625" d="M146.9,41.7c0-2.5,0.2-5,0.5-7.5h-38.1V0H87.4v18.8c0,5.7-2,15.4-15.4,15.4H44.4V0H22.5v18.8
				c0,5.7-2,15.4-15.4,15.4H0v21.7h20.7v58.2c0,19.8,12,32.1,31.4,32.1c5,0.1,10-0.6,14.9-2.1l0.8-0.3v-20.5l-1.6,0.4
				c-2.6,0.5-5.3,0.8-8,0.9c-9.8,0-13.8-3.9-13.8-13.6v-55h41.1v58.2c0,19.8,12,32.1,31.4,32.1c5,0.1,10-0.6,14.9-2.1l0.8-0.3v-20.5
				l-1.6,0.4c-2.6,0.5-5.3,0.8-8,0.9c-9.8,0-13.8-3.9-13.8-13.6v-55l37.6-0.1L146.9,41.7z"/>
		</g>
	</g>
</g>
</svg>
