<?xml version="1.0" encoding="UTF-8" standalone="no"?><svg xmlns="http://www.w3.org/2000/svg" xmlns:xlink="http://www.w3.org/1999/xlink" contentStyleType="text/css" height="909px" preserveAspectRatio="none" style="width:920px;height:909px;background:#FFFFFF;" version="1.1" viewBox="0 0 920 909" width="920px" zoomAndPan="magnify"><defs/><g><text fill="#000000" font-family="sans-serif" font-size="14" font-weight="bold" lengthAdjust="spacing" textLength="204" x="359.5" y="27.9951">SDK Integration overview</text><rect fill="none" height="75.3984" style="stroke:#000000;stroke-width:1.5;" width="493" x="10" y="135.5938"/><rect fill="none" height="110.5313" style="stroke:#000000;stroke-width:1.5;" width="904" x="10" y="224.9922"/><rect fill="none" height="139.6641" style="stroke:#000000;stroke-width:1.5;" width="686" x="165" y="349.5234"/><rect fill="none" height="174.7969" style="stroke:#000000;stroke-width:1.5;" width="823" x="10" y="503.1875"/><rect fill="none" height="104.5313" style="stroke:#000000;stroke-width:1.5;" width="338" x="165" y="691.9844"/><rect fill="none" height="75.3984" style="stroke:#000000;stroke-width:1.5;" width="493" x="10" y="810.5156"/><line style="stroke:#181818;stroke-width:0.5;stroke-dasharray:5.0,5.0;" x1="58" x2="58" y1="118.5938" y2="902.9141"/><line style="stroke:#181818;stroke-width:0.5;stroke-dasharray:5.0,5.0;" x1="197" x2="197" y1="118.5938" y2="902.9141"/><line style="stroke:#181818;stroke-width:0.5;stroke-dasharray:5.0,5.0;" x1="471" x2="471" y1="118.5938" y2="902.9141"/><line style="stroke:#181818;stroke-width:0.5;stroke-dasharray:5.0,5.0;" x1="620.5" x2="620.5" y1="118.5938" y2="902.9141"/><text fill="#000000" font-family="sans-serif" font-size="14" lengthAdjust="spacing" textLength="70" x="20" y="115.292">Customer</text><ellipse cx="58" cy="50.7969" fill="#E2E2F0" rx="8" ry="8" style="stroke:#181818;stroke-width:0.5;"/><path d="M58,58.7969 L58,85.7969 M45,66.7969 L71,66.7969 M58,85.7969 L45,100.7969 M58,85.7969 L71,100.7969 " fill="none" style="stroke:#181818;stroke-width:0.5;"/><rect fill="#E2E2F0" height="30.2969" rx="2.5" ry="2.5" style="stroke:#181818;stroke-width:0.5;" width="44" x="175" y="87.2969"/><text fill="#000000" font-family="sans-serif" font-size="14" lengthAdjust="spacing" textLength="30" x="182" y="107.292">App</text><rect fill="#E2E2F0" height="30.2969" rx="2.5" ry="2.5" style="stroke:#181818;stroke-width:0.5;" width="44" x="449" y="87.2969"/><text fill="#000000" font-family="sans-serif" font-size="14" lengthAdjust="spacing" textLength="30" x="456" y="107.292">SDK</text><rect fill="#E2E2F0" height="30.2969" rx="2.5" ry="2.5" style="stroke:#181818;stroke-width:0.5;" width="87" x="577.5" y="87.2969"/><text fill="#000000" font-family="sans-serif" font-size="14" lengthAdjust="spacing" textLength="73" x="584.5" y="107.292">tt2 Server</text><path d="M10,135.5938 L155,135.5938 L155,142.7266 L145,152.7266 L10,152.7266 L10,135.5938 " fill="#EEEEEE" style="stroke:#000000;stroke-width:1.5;"/><rect fill="none" height="75.3984" style="stroke:#000000;stroke-width:1.5;" width="493" x="10" y="135.5938"/><text fill="#000000" font-family="sans-serif" font-size="13" font-weight="bold" lengthAdjust="spacing" textLength="95" x="25" y="148.6606">Initialization</text><text fill="#000000" font-family="sans-serif" font-size="11" font-weight="bold" lengthAdjust="spacing" textLength="162" x="170" y="147.8042">[On application startup]</text><polygon fill="#181818" points="185,169.8594,195,173.8594,185,177.8594,189,173.8594" style="stroke:#181818;stroke-width:1.0;"/><line style="stroke:#181818;stroke-width:1.0;" x1="58" x2="191" y1="173.8594" y2="173.8594"/><text fill="#000000" font-family="sans-serif" font-size="13" lengthAdjust="spacing" textLength="58" x="65" y="168.7935">start app</text><polygon fill="#181818" points="459,198.9922,469,202.9922,459,206.9922,463,202.9922" style="stroke:#181818;stroke-width:1.0;"/><line style="stroke:#181818;stroke-width:1.0;" x1="197" x2="465" y1="202.9922" y2="202.9922"/><text fill="#000000" font-family="sans-serif" font-size="13" lengthAdjust="spacing" textLength="89" x="204" y="197.9263">TT2.Initialize()</text><path d="M10,224.9922 L164,224.9922 L164,232.125 L154,242.125 L10,242.125 L10,224.9922 " fill="#EEEEEE" style="stroke:#000000;stroke-width:1.5;"/><rect fill="none" height="110.5313" style="stroke:#000000;stroke-width:1.5;" width="904" x="10" y="224.9922"/><text fill="#000000" font-family="sans-serif" font-size="13" font-weight="bold" lengthAdjust="spacing" textLength="104" x="25" y="238.0591">Initiate Store</text><text fill="#000000" font-family="sans-serif" font-size="11" font-weight="bold" lengthAdjust="spacing" textLength="239" x="179" y="237.2026">[When customer checks in to store]</text><polygon fill="#181818" points="185,259.2578,195,263.2578,185,267.2578,189,263.2578" style="stroke:#181818;stroke-width:1.0;"/><line style="stroke:#181818;stroke-width:1.0;" x1="58" x2="191" y1="263.2578" y2="263.2578"/><text fill="#000000" font-family="sans-serif" font-size="13" lengthAdjust="spacing" textLength="106" x="65" y="258.1919">check in to store</text><polygon fill="#181818" points="459,288.3906,469,292.3906,459,296.3906,463,292.3906" style="stroke:#181818;stroke-width:1.0;"/><line style="stroke:#181818;stroke-width:1.0;" x1="197" x2="465" y1="292.3906" y2="292.3906"/><text fill="#000000" font-family="sans-serif" font-size="13" lengthAdjust="spacing" textLength="135" x="204" y="287.3247">TT2.initStore(storeId)</text><polygon fill="#181818" points="609,320.5234,619,324.5234,609,328.5234,613,324.5234" style="stroke:#181818;stroke-width:1.0;"/><line style="stroke:#181818;stroke-width:1.0;" x1="471" x2="615" y1="324.5234" y2="324.5234"/><text fill="#000000" font-family="sans-serif" font-size="13" lengthAdjust="spacing" textLength="109" x="478" y="319.4575">getStore(storeId)</text><path d="M626,305.3906 L626,330.3906 L899,330.3906 L899,315.3906 L889,305.3906 L626,305.3906 " fill="#FEFFDD" style="stroke:#181818;stroke-width:0.5;"/><path d="M889,305.3906 L889,315.3906 L899,315.3906 L889,305.3906 " fill="#FEFFDD" style="stroke:#181818;stroke-width:0.5;"/><text fill="#000000" font-family="sans-serif" font-size="13" lengthAdjust="spacing" textLength="252" x="632" y="322.4575">Retrieves the latest version of the map</text><path d="M165,349.5234 L361,349.5234 L361,356.6563 L351,366.6563 L165,366.6563 L165,349.5234 " fill="#EEEEEE" style="stroke:#000000;stroke-width:1.5;"/><rect fill="none" height="139.6641" style="stroke:#000000;stroke-width:1.5;" width="686" x="165" y="349.5234"/><text fill="#000000" font-family="sans-serif" font-size="13" font-weight="bold" lengthAdjust="spacing" textLength="146" x="180" y="362.5903">Start shopping trip</text><text fill="#000000" font-family="sans-serif" font-size="11" font-weight="bold" lengthAdjust="spacing" textLength="314" x="376" y="361.7339">[Can be started right after store initalization]</text><polygon fill="#181818" points="459,383.7891,469,387.7891,459,391.7891,463,387.7891" style="stroke:#181818;stroke-width:1.0;"/><line style="stroke:#181818;stroke-width:1.0;" x1="197" x2="465" y1="387.7891" y2="387.7891"/><text fill="#000000" font-family="sans-serif" font-size="13" lengthAdjust="spacing" textLength="236" x="204" y="382.7231">TT2.userSettings.initUser(memberId)</text><polygon fill="#181818" points="609,415.9219,619,419.9219,609,423.9219,613,419.9219" style="stroke:#181818;stroke-width:1.0;"/><line style="stroke:#181818;stroke-width:1.0;" x1="471" x2="615" y1="419.9219" y2="419.9219"/><text fill="#000000" font-family="sans-serif" font-size="13" lengthAdjust="spacing" textLength="126" x="478" y="414.856">getUser(memberId)</text><path d="M626,400.7891 L626,425.7891 L836,425.7891 L836,410.7891 L826,400.7891 L626,400.7891 " fill="#FEFFDD" style="stroke:#181818;stroke-width:0.5;"/><path d="M826,400.7891 L826,410.7891 L836,410.7891 L826,400.7891 " fill="#FEFFDD" style="stroke:#181818;stroke-width:0.5;"/><text fill="#000000" font-family="sans-serif" font-size="13" lengthAdjust="spacing" textLength="189" x="632" y="417.856">Retrieves the personal profile</text><polygon fill="#181818" points="459,448.0547,469,452.0547,459,456.0547,463,452.0547" style="stroke:#181818;stroke-width:1.0;"/><line style="stroke:#181818;stroke-width:1.0;" x1="197" x2="465" y1="452.0547" y2="452.0547"/><text fill="#000000" font-family="sans-serif" font-size="13" lengthAdjust="spacing" textLength="156" x="204" y="446.9888">TT2.analytics.startVisit()</text><polygon fill="#181818" points="459,477.1875,469,481.1875,459,485.1875,463,481.1875" style="stroke:#181818;stroke-width:1.0;"/><line style="stroke:#181818;stroke-width:1.0;" x1="197" x2="465" y1="481.1875" y2="481.1875"/><text fill="#000000" font-family="sans-serif" font-size="13" lengthAdjust="spacing" textLength="250" x="204" y="476.1216">TT2.analytics.startCollectingHeatmap()</text><path d="M10,503.1875 L131,503.1875 L131,510.3203 L121,520.3203 L10,520.3203 L10,503.1875 " fill="#EEEEEE" style="stroke:#000000;stroke-width:1.5;"/><rect fill="none" height="174.7969" style="stroke:#000000;stroke-width:1.5;" width="823" x="10" y="503.1875"/><text fill="#000000" font-family="sans-serif" font-size="13" font-weight="bold" lengthAdjust="spacing" textLength="76" x="25" y="516.2544">Scan Item</text><polygon fill="#181818" points="185,537.4531,195,541.4531,185,545.4531,189,541.4531" style="stroke:#181818;stroke-width:1.0;"/><line style="stroke:#181818;stroke-width:1.0;" x1="58" x2="191" y1="541.4531" y2="541.4531"/><text fill="#000000" font-family="sans-serif" font-size="13" lengthAdjust="spacing" textLength="71" x="65" y="536.3872">Scans item</text><polygon fill="#181818" points="459,566.5859,469,570.5859,459,574.5859,463,570.5859" style="stroke:#181818;stroke-width:1.0;"/><line style="stroke:#181818;stroke-width:1.0;" x1="197" x2="465" y1="570.5859" y2="570.5859"/><text fill="#000000" font-family="sans-serif" font-size="13" lengthAdjust="spacing" textLength="233" x="204" y="565.52">TT2.position.getByBarcode(Barcode)</text><polygon fill="#181818" points="208,595.7188,198,599.7188,208,603.7188,204,599.7188" style="stroke:#181818;stroke-width:1.0;"/><line style="stroke:#181818;stroke-width:1.0;stroke-dasharray:2.0,2.0;" x1="202" x2="470" y1="599.7188" y2="599.7188"/><text fill="#000000" font-family="sans-serif" font-size="13" lengthAdjust="spacing" textLength="79" x="214" y="594.6528">itemPosition</text><polygon fill="#181818" points="459,627.8516,469,631.8516,459,635.8516,463,631.8516" style="stroke:#181818;stroke-width:1.0;"/><line style="stroke:#181818;stroke-width:1.0;" x1="197" x2="465" y1="631.8516" y2="631.8516"/><text fill="#000000" font-family="sans-serif" font-size="13" lengthAdjust="spacing" textLength="218" x="204" y="626.7856">TT2.navigation.sync(itemPosition)</text><path d="M476,612.7188 L476,637.7188 L818,637.7188 L818,622.7188 L808,612.7188 L476,612.7188 " fill="#FEFFDD" style="stroke:#181818;stroke-width:0.5;"/><path d="M808,612.7188 L808,622.7188 L818,622.7188 L808,612.7188 " fill="#FEFFDD" style="stroke:#181818;stroke-width:0.5;"/><text fill="#000000" font-family="sans-serif" font-size="13" lengthAdjust="spacing" textLength="321" x="482" y="629.7856">the first item scanned will set the starting position</text><polygon fill="#181818" points="459,662.9844,469,666.9844,459,670.9844,463,666.9844" style="stroke:#181818;stroke-width:1.0;"/><line style="stroke:#181818;stroke-width:1.0;" x1="197" x2="465" y1="666.9844" y2="666.9844"/><text fill="#000000" font-family="sans-serif" font-size="13" lengthAdjust="spacing" textLength="195" x="204" y="661.9185">TT2.analytics.postScanEvent()</text><path d="M476,647.8516 L476,672.8516 L798,672.8516 L798,657.8516 L788,647.8516 L476,647.8516 " fill="#FEFFDD" style="stroke:#181818;stroke-width:0.5;"/><path d="M788,647.8516 L788,657.8516 L798,657.8516 L788,647.8516 " fill="#FEFFDD" style="stroke:#181818;stroke-width:0.5;"/><text fill="#000000" font-family="sans-serif" font-size="13" lengthAdjust="spacing" textLength="301" x="482" y="664.9185">This is optional and used for statistical analysis</text><path d="M165,691.9844 L281,691.9844 L281,699.1172 L271,709.1172 L165,709.1172 L165,691.9844 " fill="#EEEEEE" style="stroke:#000000;stroke-width:1.5;"/><rect fill="none" height="104.5313" style="stroke:#000000;stroke-width:1.5;" width="338" x="165" y="691.9844"/><text fill="#000000" font-family="sans-serif" font-size="13" font-weight="bold" lengthAdjust="spacing" textLength="66" x="180" y="705.0513">End Visit</text><text fill="#000000" font-family="sans-serif" font-size="11" font-weight="bold" lengthAdjust="spacing" textLength="173" x="296" y="704.1948">[When customer has paid]</text><polygon fill="#181818" points="459,726.25,469,730.25,459,734.25,463,730.25" style="stroke:#181818;stroke-width:1.0;"/><line style="stroke:#181818;stroke-width:1.0;" x1="197" x2="465" y1="730.25" y2="730.25"/><text fill="#000000" font-family="sans-serif" font-size="13" lengthAdjust="spacing" textLength="248" x="204" y="725.1841">TT2.analytics.stopCollectingHeatmap()</text><polygon fill="#181818" points="459,755.3828,469,759.3828,459,763.3828,463,759.3828" style="stroke:#181818;stroke-width:1.0;"/><line style="stroke:#181818;stroke-width:1.0;" x1="197" x2="465" y1="759.3828" y2="759.3828"/><text fill="#000000" font-family="sans-serif" font-size="13" lengthAdjust="spacing" textLength="154" x="204" y="754.3169">TT2.analytics.stopVisit()</text><polygon fill="#181818" points="459,784.5156,469,788.5156,459,792.5156,463,788.5156" style="stroke:#181818;stroke-width:1.0;"/><line style="stroke:#181818;stroke-width:1.0;" x1="197" x2="465" y1="788.5156" y2="788.5156"/><text fill="#000000" font-family="sans-serif" font-size="13" lengthAdjust="spacing" textLength="137" x="204" y="783.4497">TT2.navigation.stop()</text><path d="M10,810.5156 L134,810.5156 L134,817.6484 L124,827.6484 L10,827.6484 L10,810.5156 " fill="#EEEEEE" style="stroke:#000000;stroke-width:1.5;"/><rect fill="none" height="75.3984" style="stroke:#000000;stroke-width:1.5;" width="493" x="10" y="810.5156"/><text fill="#000000" font-family="sans-serif" font-size="13" font-weight="bold" lengthAdjust="spacing" textLength="74" x="25" y="823.5825">Close App</text><text fill="#000000" font-family="sans-serif" font-size="11" font-weight="bold" lengthAdjust="spacing" textLength="176" x="149" y="822.7261">[On application shutdown]</text><polygon fill="#181818" points="185,844.7813,195,848.7813,185,852.7813,189,848.7813" style="stroke:#181818;stroke-width:1.0;"/><line style="stroke:#181818;stroke-width:1.0;" x1="58" x2="191" y1="848.7813" y2="848.7813"/><text fill="#000000" font-family="sans-serif" font-size="13" lengthAdjust="spacing" textLength="115" x="65" y="843.7153">Closes application</text><polygon fill="#181818" points="459,873.9141,469,877.9141,459,881.9141,463,877.9141" style="stroke:#181818;stroke-width:1.0;"/><line style="stroke:#181818;stroke-width:1.0;" x1="197" x2="465" y1="877.9141" y2="877.9141"/><text fill="#000000" font-family="sans-serif" font-size="13" lengthAdjust="spacing" textLength="107" x="204" y="872.8481">TT2.OnDestroy()</text><!--SRC=[XLJ1Rjf04BtxAqOvaKCvvCYXKaCY5VMGgj3sW79OxC4UnUokTWSe_Vg-NKDY36cG47ZcxPjvRyQx46sPvW_VQ6QLws1Kd2Mtux0JtXUDL4nhvtJb_XIcL1TeketgDXp8H2hnl_0cg9JYZLNwudsA6-_FmeaVuLYzd8LlLEzeZb8SRb8UZqLHrC5jFTeH5TFAtwwZvPDDhAsKtNDKy6pzSv5Qe4-VKtBIHNDrV5CK5IUqMDoDN-buT5kmhSxBA2o0DgRbxuPjbfKbbWsNBv74aZgG0p4ec07z_4LXGO7CFShvMNLB1P890xaJgdcGBgn3Eq7gHYVqWpK8xnZUD4mj6aLns1NpbDOvkZ6-hsYUFOYDyrviJJZlQJarbbRS-SDLnqvchT2Owr9gyzNjvuBmULD2dPHjv31dLT36hEid0gCDRrOSKkFfq43Q5SJxyZnqEMjQyi6jfUKClp3K07702iLnLlDBeYXc-W5iwjgMozJwLpOAot04_CategDn9KoQAMzotRCnfnJMu9GRrl8EFS2tCHJV7-vDA5t5e-DlpvSJNIBwVZnpbT2QdTHv5EDuiEMeV-1yGP9lQmdeDM4eeb6B0U-bRIcovdms8Es2_r_DDyC0qwJuSSSsMJkSsg8Hc179-KI6UHbR4PQZmasHzWcDHn3b13YZn87JZy3dkGtVjmQNW3TI3HTmCfoeyzS6-k6Xqx9S0VOj1pA3Uc_Lj7MHy_LsSHCrMwtStWvkXdmWzf4NA_fa7_0w1tVehgH_]--></g></svg>