<?xml version="1.0" encoding="UTF-8" standalone="no"?><svg xmlns="http://www.w3.org/2000/svg" xmlns:xlink="http://www.w3.org/1999/xlink" contentStyleType="text/css" height="187px" preserveAspectRatio="none" style="width:327px;height:187px;background:#FFFFFF;" version="1.1" viewBox="0 0 327 187" width="327px" zoomAndPan="magnify"><defs/><g><text fill="#000000" font-family="sans-serif" font-size="14" font-weight="bold" lengthAdjust="spacing" textLength="72" x="126.5" y="27.9951">End Visit</text><line style="stroke:#181818;stroke-width:0.5;stroke-dasharray:5.0,5.0;" x1="27" x2="27" y1="73.5938" y2="180.9922"/><line style="stroke:#181818;stroke-width:0.5;stroke-dasharray:5.0,5.0;" x1="299" x2="299" y1="73.5938" y2="180.9922"/><rect fill="#E2E2F0" height="30.2969" rx="2.5" ry="2.5" style="stroke:#181818;stroke-width:0.5;" width="44" x="5" y="42.2969"/><text fill="#000000" font-family="sans-serif" font-size="14" lengthAdjust="spacing" textLength="30" x="12" y="62.292">App</text><rect fill="#E2E2F0" height="30.2969" rx="2.5" ry="2.5" style="stroke:#181818;stroke-width:0.5;" width="44" x="277" y="42.2969"/><text fill="#000000" font-family="sans-serif" font-size="14" lengthAdjust="spacing" textLength="30" x="284" y="62.292">SDK</text><polygon fill="#181818" points="287,100.7266,297,104.7266,287,108.7266,291,104.7266" style="stroke:#181818;stroke-width:1.0;"/><line style="stroke:#181818;stroke-width:1.0;" x1="27" x2="293" y1="104.7266" y2="104.7266"/><text fill="#000000" font-family="sans-serif" font-size="13" lengthAdjust="spacing" textLength="248" x="34" y="99.6606">TT2.analytics.stopCollectingHeatmap()</text><polygon fill="#181818" points="287,129.8594,297,133.8594,287,137.8594,291,133.8594" style="stroke:#181818;stroke-width:1.0;"/><line style="stroke:#181818;stroke-width:1.0;" x1="27" x2="293" y1="133.8594" y2="133.8594"/><text fill="#000000" font-family="sans-serif" font-size="13" lengthAdjust="spacing" textLength="154" x="34" y="128.7935">TT2.analytics.stopVisit()</text><polygon fill="#181818" points="287,158.9922,297,162.9922,287,166.9922,291,162.9922" style="stroke:#181818;stroke-width:1.0;"/><line style="stroke:#181818;stroke-width:1.0;" x1="27" x2="293" y1="162.9922" y2="162.9922"/><text fill="#000000" font-family="sans-serif" font-size="13" lengthAdjust="spacing" textLength="137" x="34" y="157.9263">TT2.navigation.stop()</text><!--SRC=[XOun2y8m44Rt_8eRsy4EZWw2g20uDhYVJQo7yUumXxJ_tgIR8FZ6n_lWysGfmf43N2YJkJk523SHkyha55z60ocomKuLC0EgVkd-SAuwXuUhGA4aiDfMjV5-tI5ZcakVksoYUqaf3aOydYBQ4xLf_u-MQxz3nZUDQ2Iyb4tx0G00]--></g></svg>